<?xml version="1.0" standalone="no"?>
<!DOCTYPE svg PUBLIC "-//W3C//DTD SVG 20010904//EN"
 "http://www.w3.org/TR/2001/REC-SVG-20010904/DTD/svg10.dtd">
<svg version="1.0" xmlns="http://www.w3.org/2000/svg"
 width="200.000000pt" height="200.000000pt" viewBox="0 0 200.000000 200.000000"
 preserveAspectRatio="xMidYMid meet">

<g transform="translate(0.000000,200.000000) scale(0.100000,-0.100000)"
fill="#000000" stroke="none">
<path d="M0 1000 l0 -1000 1000 0 1000 0 0 1000 0 1000 -1000 0 -1000 0 0
-1000z m887 3 c67 -170 119 -311 116 -315 -5 -10 -423 -11 -423 -1 0 3 13 35
30 70 l30 63 69 0 69 0 -46 140 c-26 77 -49 136 -53 132 -3 -4 -50 -92 -103
-197 -54 -104 -102 -195 -107 -202 -12 -14 -159 -17 -159 -3 0 6 69 147 152
315 l153 305 76 0 76 0 120 -307z m247 40 c23 -67 44 -124 47 -128 4 -3 17 23
29 59 23 69 22 76 -18 184 -3 10 13 12 73 10 l78 -3 41 -122 c23 -67 44 -124
48 -128 3 -4 26 52 49 124 l43 131 84 0 c46 0 82 -4 80 -9 -1 -4 -43 -112 -92
-240 l-89 -231 -72 0 -73 0 -22 63 c-13 34 -26 65 -29 69 -4 4 -18 -24 -31
-62 l-24 -70 -72 0 -72 0 -57 148 c-32 81 -73 185 -91 231 -19 47 -34 89 -34
93 0 5 37 8 82 6 l81 -3 41 -122z"/>
</g>
</svg>
